<svg xmlns="http://www.w3.org/2000/svg" width="224" height="160" viewBox="0 0 224 160"><polygon points="148.26,24.12 159.67,13.54 75.74,-0.35" fill="#5fa495" stroke="#5fa495" stroke-width=".4"/><polygon points="148.26,24.12 200.14,84.74 159.67,13.54" fill="#539083" stroke="#539083" stroke-width=".4"/><polygon points="23.86,75.26 64.33,62.26 75.74,-0.35" fill="#6bb8a7" stroke="#6bb8a7" stroke-width=".4"/><polygon points="200.14,84.74 141.21,114.85 148.26,160.35" fill="#539083" stroke="#539083" stroke-width=".4"/><polygon points="23.86,75.26 64.33,146.46 64.33,62.26" fill="#64ad9d" stroke="#64ad9d" stroke-width=".4"/><polygon points="141.21,114.85 64.33,146.46 148.26,160.35" fill="#539083" stroke="#539083" stroke-width=".4"/><polygon points="64.33,62.26 148.26,24.12 75.74,-0.35" fill="#68b4a4" stroke="#68b4a4" stroke-width=".4"/><polygon points="200.14,84.74 148.26,24.12 141.21,114.85" fill="#539083" stroke="#539083" stroke-width=".4"/><polygon points="141.21,114.85 64.33,62.26 64.33,146.46" fill="#5da192" stroke="#5da192" stroke-width=".4"/><polygon points="64.33,62.26 141.21,114.85 148.26,24.12" fill="#60a697" stroke="#60a697" stroke-width=".4"/></svg>