<svg xmlns="http://www.w3.org/2000/svg" width="224" height="160" viewBox="0 0 224 160"><polygon points="104.67,95.97 104.67,5.15 41.10,128.46" fill="#539083" stroke="#539083" stroke-width=".4"/><polygon points="182.90,122.37 104.67,95.97 119.33,154.85" fill="#65ae9e" stroke="#65ae9e" stroke-width=".4"/><polygon points="104.67,95.97 41.10,128.46 119.33,154.85" fill="#65ae9e" stroke="#65ae9e" stroke-width=".4"/><polygon points="104.67,5.15 41.10,37.63 41.10,128.46" fill="#539083" stroke="#539083" stroke-width=".4"/><polygon points="21.54,144.56 41.10,128.46 41.10,37.63" fill="#62a999" stroke="#62a999" stroke-width=".4"/><polygon points="119.33,154.85 41.10,128.46 21.54,144.56" fill="#62a999" stroke="#62a999" stroke-width=".4"/><polygon points="21.54,8.33 21.54,144.56 41.10,37.63" fill="#62a999" stroke="#62a999" stroke-width=".4"/><polygon points="119.33,154.85 21.54,144.56 138.89,184.15" fill="#62a999" stroke="#62a999" stroke-width=".4"/><polygon points="202.46,151.67 202.46,15.44 138.89,184.15" fill="#539083" stroke="#539083" stroke-width=".4"/><polygon points="85.11,-24.15 21.54,8.33 138.89,47.92" fill="#65ae9e" stroke="#65ae9e" stroke-width=".4"/><polygon points="202.46,15.44 85.11,-24.15 138.89,47.92" fill="#65ae9e" stroke="#65ae9e" stroke-width=".4"/><polygon points="138.89,47.92 21.54,8.33 41.10,37.63" fill="#62a999" stroke="#62a999" stroke-width=".4"/><polygon points="119.33,64.03 119.33,154.85 138.89,184.15" fill="#62a999" stroke="#62a999" stroke-width=".4"/><polygon points="202.46,15.44 138.89,47.92 138.89,184.15" fill="#539083" stroke="#539083" stroke-width=".4"/><polygon points="138.89,47.92 41.10,37.63 119.33,64.03" fill="#62a999" stroke="#62a999" stroke-width=".4"/><polygon points="119.33,64.03 138.89,184.15 138.89,47.92" fill="#62a999" stroke="#62a999" stroke-width=".4"/></svg>