<svg xmlns="http://www.w3.org/2000/svg" width="224" height="160" viewBox="0 0 224 160"><polygon points="110.47,84.27 81.13,74.38 54.85,112.70" fill="#65ae9e" stroke="#65ae9e" stroke-width=".4"/><polygon points="81.13,74.38 25.52,102.80 54.85,112.70" fill="#65ae9e" stroke="#65ae9e" stroke-width=".4"/><polygon points="139.81,65.79 110.47,55.89 84.19,94.21" fill="#65ae9e" stroke="#65ae9e" stroke-width=".4"/><polygon points="25.52,102.80 25.52,131.18 142.87,170.77" fill="#62a999" stroke="#62a999" stroke-width=".4"/><polygon points="110.47,55.89 54.85,84.31 84.19,94.21" fill="#65ae9e" stroke="#65ae9e" stroke-width=".4"/><polygon points="54.85,112.70 25.52,102.80 142.87,170.77" fill="#62a999" stroke="#62a999" stroke-width=".4"/><polygon points="84.19,94.21 54.85,84.31 54.85,112.70" fill="#62a999" stroke="#62a999" stroke-width=".4"/><polygon points="169.15,47.30 139.81,37.41 113.53,75.73" fill="#65ae9e" stroke="#65ae9e" stroke-width=".4"/><polygon points="198.48,142.35 198.48,28.82 142.87,170.77" fill="#539083" stroke="#539083" stroke-width=".4"/><polygon points="84.19,94.21 54.85,112.70 142.87,170.77" fill="#62a999" stroke="#62a999" stroke-width=".4"/><polygon points="139.81,37.41 84.19,65.83 113.53,75.73" fill="#65ae9e" stroke="#65ae9e" stroke-width=".4"/><polygon points="113.53,75.73 84.19,65.83 84.19,94.21" fill="#62a999" stroke="#62a999" stroke-width=".4"/><polygon points="142.87,170.77 113.53,75.73 84.19,94.21" fill="#62a999" stroke="#62a999" stroke-width=".4"/><polygon points="198.48,28.82 169.15,18.92 142.87,57.24" fill="#65ae9e" stroke="#65ae9e" stroke-width=".4"/><polygon points="198.48,28.82 142.87,57.24 142.87,170.77" fill="#539083" stroke="#539083" stroke-width=".4"/><polygon points="142.87,170.77 113.53,47.34 113.53,75.73" fill="#62a999" stroke="#62a999" stroke-width=".4"/><polygon points="169.15,18.92 113.53,47.34 142.87,57.24" fill="#65ae9e" stroke="#65ae9e" stroke-width=".4"/><polygon points="142.87,170.77 142.87,57.24 113.53,47.34" fill="#62a999" stroke="#62a999" stroke-width=".4"/></svg>